<?xml version="1.0" encoding="UTF-8" standalone="no"?>
<svg
   xmlns:dc="http://purl.org/dc/elements/1.1/"
   xmlns:cc="http://creativecommons.org/ns#"
   xmlns:rdf="http://www.w3.org/1999/02/22-rdf-syntax-ns#"
   xmlns:svg="http://www.w3.org/2000/svg"
   xmlns="http://www.w3.org/2000/svg"
   xmlns:sodipodi="http://sodipodi.sourceforge.net/DTD/sodipodi-0.dtd"
   xmlns:inkscape="http://www.inkscape.org/namespaces/inkscape"
   inkscape:version="1.0 (4035a4fb49, 2020-05-01)"
   sodipodi:docname="transparent_background_icon.svg"
   version="1.1"
   height="900"
   width="900"
   id="SvgjsSvg480276">
  <metadata
     id="metadata5966">
    <rdf:RDF>
      <cc:Work
         rdf:about="">
        <dc:format>image/svg+xml</dc:format>
        <dc:type
           rdf:resource="http://purl.org/dc/dcmitype/StillImage" />
        <dc:title></dc:title>
      </cc:Work>
    </rdf:RDF>
  </metadata>
  <sodipodi:namedview
     inkscape:current-layer="SvgjsSvg480276"
     inkscape:window-maximized="1"
     inkscape:window-y="-6"
     inkscape:window-x="-6"
     inkscape:cy="450"
     inkscape:cx="450"
     inkscape:zoom="0.75555556"
     showgrid="false"
     id="namedview5964"
     inkscape:window-height="850"
     inkscape:window-width="1368"
     inkscape:pageshadow="2"
     inkscape:pageopacity="0"
     guidetolerance="10"
     gridtolerance="10"
     objecttolerance="10"
     borderopacity="1"
     bordercolor="#666666"
     pagecolor="#ffffff" />
  <defs
     id="SvgjsDefs480277">
    <clipPath
       id="clipPath50"
       clipPathUnits="userSpaceOnUse">
      <rect
         y="108.05606"
         x="155.33058"
         height="928.60675"
         width="1083.9374"
         id="rect52"
         style="fill:#0000ff;fill-rule:evenodd" />
    </clipPath>
    <defs
       id="SvgjsDefs128458" />
  </defs>
  <rect
     style="fill:none"
     transform="matrix(0.83030627,0,0,0.9691939,-128.97196,-104.72727)"
     y="0"
     x="0"
     clip-path="url(#clipPath50)"
     fill="#199ec7"
     height="1122.2422"
     width="4096"
     id="SvgjsRect480278" />
  <g
     fill="#fcb410"
     non-strokable="false"
     light-content="false"
     transform="matrix(9.3618626,0,0,9.6644497,-9.4038377,-42.393565)"
     class="1TRlTiGLG"
     id="SvgjsG128460">
    <path
       id="path29"
       d="m 83.924,24 c -4.363,0 -7.913,3.55 -7.913,7.913 0,1.461 0.405,2.825 1.098,4.001 L 64.486,48.536 a 7.865,7.865 0 0 0 -3.804,-0.978 c -3.191,0 -5.942,1.903 -7.192,4.631 L 41.195,49.8 c -0.803,-3.519 -3.951,-6.154 -7.709,-6.154 -4.363,0 -7.913,3.55 -7.913,7.913 0,1.309 0.325,2.543 0.89,3.631 l -7.214,7.216 A 7.848,7.848 0 0 0 15.914,61.659 C 11.55,61.658 8,65.208 8,69.571 c 0,4.363 3.55,7.913 7.913,7.913 4.364,0 7.914,-3.55 7.914,-7.913 A 7.837,7.837 0 0 0 23.062,66.2 l 7.35,-7.351 c 0.945,0.4 1.984,0.622 3.074,0.622 3.07,0 5.73,-1.76 7.042,-4.32 l 12.538,2.437 c 0.929,3.337 3.988,5.797 7.617,5.797 4.363,0 7.913,-3.55 7.913,-7.913 0,-1.019 -0.2,-1.989 -0.553,-2.885 L 81.272,39.359 c 0.83,0.296 1.721,0.467 2.651,0.467 4.363,0 7.913,-3.55 7.913,-7.913 C 91.836,27.55 88.287,24 83.924,24 Z M 15.913,72.104 a 2.536,2.536 0 0 1 -2.533,-2.533 2.535,2.535 0 0 1 2.533,-2.533 2.536,2.536 0 0 1 2.534,2.533 2.536,2.536 0 0 1 -2.534,2.533 z M 33.486,54.092 a 2.537,2.537 0 0 1 -2.534,-2.533 c 0,-1.397 1.137,-2.533 2.534,-2.533 1.397,0 2.534,1.136 2.534,2.533 a 2.537,2.537 0 0 1 -2.534,2.533 z m 27.197,3.913 a 2.536,2.536 0 0 1 -2.533,-2.533 2.535,2.535 0 0 1 2.533,-2.533 2.536,2.536 0 0 1 2.533,2.533 2.537,2.537 0 0 1 -2.533,2.533 z M 83.924,34.446 c -1.397,0 -2.533,-1.136 -2.533,-2.533 0,-1.397 1.136,-2.533 2.533,-2.533 1.396,0 2.533,1.136 2.533,2.533 0,1.397 -1.137,2.533 -2.533,2.533 z" />
  </g>
</svg>
